<?xml version="1.0" encoding="UTF-8" standalone="no"?>
<!DOCTYPE svg PUBLIC "-//W3C//DTD SVG 1.1//EN" "http://www.w3.org/Graphics/SVG/1.1/DTD/svg11.dtd">
<svg version="1.1" xmlns="http://www.w3.org/2000/svg" xmlns:xlink="http://www.w3.org/1999/xlink" preserveAspectRatio="xMidYMid meet" viewBox="0 0 512 512" width="512" height="512"><defs><path d="M371.28 511.57L-140.28 511.57L-140.28 0L371.28 0L371.28 511.57Z" id="a1qC56voOh"></path><path d="M371.28 511.57L-140.28 511.57L-140.28 0L371.28 0L371.28 511.57Z" id="d264iH4Xw9"></path><path d="M0 0L514.22 0L514.22 511.57L0 511.57L0 0Z" id="ajuoH9yMc"></path><path d="M225.59 309.72L170.88 459.02L378.74 252.29L269.34 252.29L345.92 103L225.59 103L149 309.72L225.59 309.72Z" id="cEu3ve84w"></path><path d="M254.75 280.72L200.05 430.02L407.9 223.29L298.5 223.29L375.09 74L254.75 74L178.17 280.72L254.75 280.72Z" id="h8rYOcWd4"></path><path d="M-61.28 44.37L-59.65 44.37L-59.65 44.37L-61.28 44.37Z" id="b24g9jNN2"></path><path d="M-61.28 44.37L-59.65 44.37L-59.65 44.37L-61.28 44.37Z" id="b2nstC9nL"></path></defs><g><g><g><use xlink:href="#a1qC56voOh" opacity="1" fill="#ffffff" fill-opacity="0"></use><g><use xlink:href="#a1qC56voOh" opacity="1" fill-opacity="0" stroke="#000000" stroke-width="1" stroke-opacity="0"></use></g></g><g><use xlink:href="#d264iH4Xw9" opacity="1" fill="#000000" fill-opacity="0"></use><g><use xlink:href="#d264iH4Xw9" opacity="1" fill-opacity="0" stroke="#000000" stroke-width="1" stroke-opacity="0"></use></g></g><g><use xlink:href="#ajuoH9yMc" opacity="1" fill="#2b2d51" fill-opacity="1"></use></g><g><use xlink:href="#cEu3ve84w" opacity="1" fill="#ffffff" fill-opacity="1"></use><g><use xlink:href="#cEu3ve84w" opacity="1" fill-opacity="0" stroke="#000000" stroke-width="1" stroke-opacity="0"></use></g></g><g><use xlink:href="#h8rYOcWd4" opacity="1" fill="#000000" fill-opacity="0"></use><g><use xlink:href="#h8rYOcWd4" opacity="1" fill-opacity="0" stroke="#000000" stroke-width="1" stroke-opacity="0"></use></g></g><g><use xlink:href="#b24g9jNN2" opacity="1" fill="#4d0a32" fill-opacity="1"></use><g><use xlink:href="#b24g9jNN2" opacity="1" fill-opacity="0" stroke="#000000" stroke-width="1" stroke-opacity="0"></use></g></g><g><use xlink:href="#b2nstC9nL" opacity="1" fill="#000000" fill-opacity="0"></use><g><use xlink:href="#b2nstC9nL" opacity="1" fill-opacity="0" stroke="#000000" stroke-width="1" stroke-opacity="0"></use></g></g></g></g></svg>