<?xml version="1.0" encoding="UTF-8" standalone="no"?>
<!DOCTYPE svg PUBLIC "-//W3C//DTD SVG 1.1//EN" "http://www.w3.org/Graphics/SVG/1.1/DTD/svg11.dtd">
<svg version="1.1" xmlns="http://www.w3.org/2000/svg" xmlns:xlink="http://www.w3.org/1999/xlink" preserveAspectRatio="xMidYMid meet" viewBox="0 0 512 512" width="512" height="512"><defs><path d="M57.22 659.57L57.22 148L568.78 148L568.78 659.57L57.22 659.57Z" id="eyV3L3iwR"></path><path d="M57.22 659.57L57.22 148L568.78 148L568.78 659.57L57.22 659.57Z" id="c3scZicJxK"></path><path d="M137.85 192.37L137.85 192.37L136.22 192.37L137.85 192.37Z" id="a50Fi6Aug"></path><path d="M137.85 192.37L137.85 192.37L136.22 192.37L137.85 192.37Z" id="f18bMORXVU"></path><path d="M137.85 192.37L137.85 192.37L136.22 192.37L137.85 192.37Z" id="b1K2U2AxuO"></path><path d="M137.85 192.37L137.85 192.37L136.22 192.37L137.85 192.37Z" id="a2LUuqA8T1"></path><path d="M511.19 -0.81L512.81 511.19L0.81 512.81L-0.81 0.81L511.19 -0.81Z" id="a3u9VU86SN"></path><path d="M179.01 450.01L386.87 243.28L277.47 243.28L354.06 93.99L233.72 93.99L157.13 300.71L233.72 300.71L179.01 450.01Z" id="b1kjktds54"></path><path d="M179.01 450.01L386.87 243.28L277.47 243.28L354.06 93.99L233.72 93.99L157.13 300.71L233.72 300.71L179.01 450.01Z" id="a63Sffijm4"></path><path d="M0 473.4L512 473.4L512 512L0 512L0 473.4Z" id="aihvUkS07"></path><path d="M0 0L91.17 0L91.17 512L0 512L0 0Z" id="bv6VQOKDr"></path><path d="M0 0L512 0L512 53.7L0 53.7L0 0Z" id="b15OjndNuI"></path><path d="M448.74 0L512 0L512 512L448.74 512L448.74 0Z" id="b489aLcg4G"></path></defs><g><g><g><use xlink:href="#eyV3L3iwR" opacity="1" fill="#ffffff" fill-opacity="0"></use><g><use xlink:href="#eyV3L3iwR" opacity="1" fill-opacity="0" stroke="#000000" stroke-width="1" stroke-opacity="0"></use></g></g><g><use xlink:href="#c3scZicJxK" opacity="1" fill="#000000" fill-opacity="0"></use><g><use xlink:href="#c3scZicJxK" opacity="1" fill-opacity="0" stroke="#000000" stroke-width="1" stroke-opacity="0"></use></g></g><g><use xlink:href="#a50Fi6Aug" opacity="1" fill="#4d0a32" fill-opacity="1"></use><g><use xlink:href="#a50Fi6Aug" opacity="1" fill-opacity="0" stroke="#000000" stroke-width="1" stroke-opacity="0"></use></g></g><g><use xlink:href="#f18bMORXVU" opacity="1" fill="#000000" fill-opacity="0"></use><g><use xlink:href="#f18bMORXVU" opacity="1" fill-opacity="0" stroke="#000000" stroke-width="1" stroke-opacity="0"></use></g></g><g><use xlink:href="#b1K2U2AxuO" opacity="1" fill="#000000" fill-opacity="0"></use><g><use xlink:href="#b1K2U2AxuO" opacity="1" fill-opacity="0" stroke="#000000" stroke-width="1" stroke-opacity="0"></use></g></g><g><use xlink:href="#a2LUuqA8T1" opacity="1" fill="#000000" fill-opacity="0"></use><g><use xlink:href="#a2LUuqA8T1" opacity="1" fill-opacity="0" stroke="#000000" stroke-width="1" stroke-opacity="0"></use></g></g><g><use xlink:href="#a3u9VU86SN" opacity="1" fill="#ffffff" fill-opacity="1"></use><g><use xlink:href="#a3u9VU86SN" opacity="1" fill-opacity="0" stroke="#000000" stroke-width="1" stroke-opacity="0"></use></g></g><g><use xlink:href="#b1kjktds54" opacity="1" fill="#3498db" fill-opacity="1"></use><g><use xlink:href="#b1kjktds54" opacity="1" fill-opacity="0" stroke="#000000" stroke-width="1" stroke-opacity="0"></use></g></g><g><use xlink:href="#a63Sffijm4" opacity="1" fill="#000000" fill-opacity="0"></use><g><use xlink:href="#a63Sffijm4" opacity="1" fill-opacity="0" stroke="#000000" stroke-width="1" stroke-opacity="0"></use></g></g><g><use xlink:href="#aihvUkS07" opacity="1" fill="#ffffff" fill-opacity="1"></use></g><g><use xlink:href="#bv6VQOKDr" opacity="1" fill="#ffffff" fill-opacity="1"></use></g><g><use xlink:href="#b15OjndNuI" opacity="1" fill="#ffffff" fill-opacity="1"></use></g><g><use xlink:href="#b489aLcg4G" opacity="1" fill="#ffffff" fill-opacity="1"></use></g></g></g></svg>
