<?xml version="1.0" encoding="UTF-8" standalone="no"?>
<!DOCTYPE svg PUBLIC "-//W3C//DTD SVG 1.1//EN" "http://www.w3.org/Graphics/SVG/1.1/DTD/svg11.dtd">
<svg version="1.1" xmlns="http://www.w3.org/2000/svg" xmlns:xlink="http://www.w3.org/1999/xlink" preserveAspectRatio="xMidYMid meet" viewBox="0 0 512 512" width="512" height="512"><defs><path d="M568.78 659.57L57.22 659.57L57.22 148L568.78 148L568.78 659.57Z" id="btGMAk0D"></path><path d="M512 256.22C512 397.39 397.39 512 256.22 512C115.04 512 0.43 397.39 0.43 256.22C0.43 115.04 115.04 0.43 256.22 0.43C397.39 0.43 512 115.04 512 256.22Z" id="b5SpiAvKg"></path><path d="M136.22 192.37L137.85 192.37L137.85 192.37L136.22 192.37Z" id="alCAX0vu0"></path><path d="M136.22 192.37L137.85 192.37L137.85 192.37L136.22 192.37Z" id="c3kJ01x6MQ"></path><path d="M233.72 300.71L179.01 450.01L386.87 243.28L277.47 243.28L354.06 93.99L233.72 93.99L157.13 300.71L233.72 300.71Z" id="bkbO5OHLk"></path></defs><g><g><g><use xlink:href="#btGMAk0D" opacity="1" fill="#ffffff" fill-opacity="0"></use><g><use xlink:href="#btGMAk0D" opacity="1" fill-opacity="0" stroke="#000000" stroke-width="1" stroke-opacity="0"></use></g></g><g><use xlink:href="#b5SpiAvKg" opacity="1" fill="#ffffff" fill-opacity="1"></use></g><g><use xlink:href="#alCAX0vu0" opacity="1" fill="#4d0a32" fill-opacity="1"></use><g><use xlink:href="#alCAX0vu0" opacity="1" fill-opacity="0" stroke="#000000" stroke-width="1" stroke-opacity="0"></use></g></g><g><use xlink:href="#c3kJ01x6MQ" opacity="1" fill="#000000" fill-opacity="0"></use><g><use xlink:href="#c3kJ01x6MQ" opacity="1" fill-opacity="0" stroke="#000000" stroke-width="1" stroke-opacity="0"></use></g></g><g><use xlink:href="#bkbO5OHLk" opacity="1" fill="#e74c3c" fill-opacity="1"></use><g><use xlink:href="#bkbO5OHLk" opacity="1" fill-opacity="0" stroke="#000000" stroke-width="1" stroke-opacity="0"></use></g></g></g></g></svg>