<?xml version="1.0" encoding="UTF-8" standalone="no"?>
<!DOCTYPE svg PUBLIC "-//W3C//DTD SVG 1.1//EN" "http://www.w3.org/Graphics/SVG/1.1/DTD/svg11.dtd">
<svg version="1.1" xmlns="http://www.w3.org/2000/svg" xmlns:xlink="http://www.w3.org/1999/xlink" preserveAspectRatio="xMidYMid meet" viewBox="0 0 512 512" width="512" height="512"><defs><path d="M57.22 659.57L57.22 148L568.78 148L568.78 659.57L57.22 659.57Z" id="d79ylp0lBS"></path><path d="M57.22 659.57L57.22 148L568.78 148L568.78 659.57L57.22 659.57Z" id="h1kOXD22kk"></path><path d="M137.85 192.37L137.85 192.37L136.22 192.37L137.85 192.37Z" id="a2WECkWvUA"></path><path d="M137.85 192.37L137.85 192.37L136.22 192.37L137.85 192.37Z" id="c35SmqizvX"></path><path d="M137.85 192.37L137.85 192.37L136.22 192.37L137.85 192.37Z" id="eEiItgekV"></path><path d="M137.85 192.37L137.85 192.37L136.22 192.37L137.85 192.37Z" id="bAY9JLVB"></path><path d="M511.19 -0.81L512.81 511.19L0.81 512.81L-0.81 0.81L511.19 -0.81Z" id="f2nkqW6C9R"></path><path d="M179.01 450.82L386.87 244.1L277.47 244.1L354.06 94.8L233.72 94.8L157.13 301.52L233.72 301.52L179.01 450.82Z" id="b1JdbyxAM3"></path><path d="M179.01 450.82L386.87 244.1L277.47 244.1L354.06 94.8L233.72 94.8L157.13 301.52L233.72 301.52L179.01 450.82Z" id="aEeFapTYe"></path><path d="M0 465.82L512 465.82L512 512L0 512L0 465.82Z" id="e8zX5xb1Uz"></path><path d="M0 0L83.59 0L83.59 512L0 512L0 0Z" id="cv9UwaNz7"></path><path d="M0 0L512.81 0L512.81 59.76L0 59.76L0 0Z" id="h1tdg5OLox"></path><path d="M430.56 0L512 0L512 512.81L430.56 512.81L430.56 0Z" id="a25QHtoSV0"></path></defs><g><g><g><use xlink:href="#d79ylp0lBS" opacity="1" fill="#ffffff" fill-opacity="0"></use><g><use xlink:href="#d79ylp0lBS" opacity="1" fill-opacity="0" stroke="#000000" stroke-width="1" stroke-opacity="0"></use></g></g><g><use xlink:href="#h1kOXD22kk" opacity="1" fill="#000000" fill-opacity="0"></use><g><use xlink:href="#h1kOXD22kk" opacity="1" fill-opacity="0" stroke="#000000" stroke-width="1" stroke-opacity="0"></use></g></g><g><use xlink:href="#a2WECkWvUA" opacity="1" fill="#4d0a32" fill-opacity="1"></use><g><use xlink:href="#a2WECkWvUA" opacity="1" fill-opacity="0" stroke="#000000" stroke-width="1" stroke-opacity="0"></use></g></g><g><use xlink:href="#c35SmqizvX" opacity="1" fill="#000000" fill-opacity="0"></use><g><use xlink:href="#c35SmqizvX" opacity="1" fill-opacity="0" stroke="#000000" stroke-width="1" stroke-opacity="0"></use></g></g><g><use xlink:href="#eEiItgekV" opacity="1" fill="#000000" fill-opacity="0"></use><g><use xlink:href="#eEiItgekV" opacity="1" fill-opacity="0" stroke="#000000" stroke-width="1" stroke-opacity="0"></use></g></g><g><use xlink:href="#bAY9JLVB" opacity="1" fill="#000000" fill-opacity="0"></use><g><use xlink:href="#bAY9JLVB" opacity="1" fill-opacity="0" stroke="#000000" stroke-width="1" stroke-opacity="0"></use></g></g><g><use xlink:href="#f2nkqW6C9R" opacity="1" fill="#ffffff" fill-opacity="1"></use><g><use xlink:href="#f2nkqW6C9R" opacity="1" fill-opacity="0" stroke="#000000" stroke-width="1" stroke-opacity="0"></use></g></g><g><use xlink:href="#b1JdbyxAM3" opacity="1" fill="#e74c3c" fill-opacity="1"></use><g><use xlink:href="#b1JdbyxAM3" opacity="1" fill-opacity="0" stroke="#000000" stroke-width="1" stroke-opacity="0"></use></g></g><g><use xlink:href="#aEeFapTYe" opacity="1" fill="#000000" fill-opacity="0"></use><g><use xlink:href="#aEeFapTYe" opacity="1" fill-opacity="0" stroke="#000000" stroke-width="1" stroke-opacity="0"></use></g></g><g><use xlink:href="#e8zX5xb1Uz" opacity="1" fill="#ffffff" fill-opacity="1"></use></g><g><use xlink:href="#cv9UwaNz7" opacity="1" fill="#ffffff" fill-opacity="1"></use></g><g><use xlink:href="#h1tdg5OLox" opacity="1" fill="#ffffff" fill-opacity="1"></use></g><g><use xlink:href="#a25QHtoSV0" opacity="1" fill="#ffffff" fill-opacity="1"></use></g></g></g></svg>
