<?xml version="1.0" encoding="UTF-8" standalone="no"?>
<!DOCTYPE svg PUBLIC "-//W3C//DTD SVG 1.1//EN" "http://www.w3.org/Graphics/SVG/1.1/DTD/svg11.dtd">
<svg version="1.1" xmlns="http://www.w3.org/2000/svg" xmlns:xlink="http://www.w3.org/1999/xlink" preserveAspectRatio="xMidYMid meet" viewBox="0 0 87.27 38" width="87.27" height="38"><defs><path d="M176.02 54.77L121.25 54.77L121.25 0L176.02 0L176.02 54.77Z" id="aPl2BFg0J"></path><path d="M176.02 54.77L121.25 54.77L121.25 0L176.02 0L176.02 54.77Z" id="fpoDJcG0e"></path><path d="M8.59 22.13L2.74 38.11L24.99 15.98L13.28 15.98L21.48 0L8.59 0L0.39 22.13L8.59 22.13Z" id="aRU9gykUi"></path><path d="M102.59 22.13L96.74 38.11L118.99 15.98L107.28 15.98L115.48 0L102.59 0L94.39 22.13L102.59 22.13Z" id="cmN1MJR9o"></path><path d="M129.71 4.75L129.88 4.75L129.88 4.75L129.71 4.75Z" id="a4KCqHuWE"></path><path d="M129.71 4.75L129.88 4.75L129.88 4.75L129.71 4.75Z" id="d1oePvjM"></path><path d="M-102.17 38.09L-140.28 38.09L-140.28 -0.02L-102.17 -0.02L-102.17 38.09Z" id="b2N2uyTFE4"></path><path d="M-94.17 39.09L-132.28 39.09L-132.28 0.98L-94.17 0.98L-94.17 39.09Z" id="e1lMvlAHNv"></path><path d="M39.78 22.13L33.92 38.11L56.17 15.98L44.46 15.98L52.66 0L39.78 0L31.58 22.13L39.78 22.13Z" id="b11ZmoTwn"></path><path d="M-134.4 3.29L-134.28 3.29L-134.28 3.29L-134.4 3.29Z" id="a1Th03QHFJ"></path><path d="M-134.4 3.29L-134.28 3.29L-134.28 3.29L-134.4 3.29Z" id="dafF7YFhcs"></path><path d="M371.28 511.57L-140.28 511.57L-140.28 0L371.28 0L371.28 511.57Z" id="aTDVfZfp9"></path><path d="M371.28 511.57L-140.28 511.57L-140.28 0L371.28 0L371.28 511.57Z" id="f1EvFFChdz"></path><path d="M70.87 22.13L65.01 38.11L87.26 15.98L75.55 15.98L83.75 0L70.87 0L62.67 22.13L70.87 22.13Z" id="eBPtfqQwP"></path><path d="M-61.28 44.37L-59.65 44.37L-59.65 44.37L-61.28 44.37Z" id="d59mqlDev"></path><path d="M-61.28 44.37L-59.65 44.37L-59.65 44.37L-61.28 44.37Z" id="i17D8eEqGI"></path></defs><g><g><g><use xlink:href="#aPl2BFg0J" opacity="1" fill="#ffffff" fill-opacity="0"></use><g><use xlink:href="#aPl2BFg0J" opacity="1" fill-opacity="0" stroke="#000000" stroke-width="1" stroke-opacity="0"></use></g></g><g><use xlink:href="#fpoDJcG0e" opacity="1" fill="#000000" fill-opacity="0"></use><g><use xlink:href="#fpoDJcG0e" opacity="1" fill-opacity="0" stroke="#000000" stroke-width="1" stroke-opacity="0"></use></g></g><g><use xlink:href="#aRU9gykUi" opacity="1" fill="#2b2d51" fill-opacity="1"></use><g><use xlink:href="#aRU9gykUi" opacity="1" fill-opacity="0" stroke="#000000" stroke-width="1" stroke-opacity="0"></use></g></g><g><use xlink:href="#cmN1MJR9o" opacity="1" fill="#000000" fill-opacity="0"></use><g><use xlink:href="#cmN1MJR9o" opacity="1" fill-opacity="0" stroke="#000000" stroke-width="1" stroke-opacity="0"></use></g></g><g><use xlink:href="#a4KCqHuWE" opacity="1" fill="#4d0a32" fill-opacity="1"></use><g><use xlink:href="#a4KCqHuWE" opacity="1" fill-opacity="0" stroke="#000000" stroke-width="1" stroke-opacity="0"></use></g></g><g><use xlink:href="#d1oePvjM" opacity="1" fill="#000000" fill-opacity="0"></use><g><use xlink:href="#d1oePvjM" opacity="1" fill-opacity="0" stroke="#000000" stroke-width="1" stroke-opacity="0"></use></g></g><g><use xlink:href="#b2N2uyTFE4" opacity="1" fill="#ffffff" fill-opacity="0"></use><g><use xlink:href="#b2N2uyTFE4" opacity="1" fill-opacity="0" stroke="#000000" stroke-width="1" stroke-opacity="0"></use></g></g><g><use xlink:href="#e1lMvlAHNv" opacity="1" fill="#000000" fill-opacity="0"></use><g><use xlink:href="#e1lMvlAHNv" opacity="1" fill-opacity="0" stroke="#000000" stroke-width="1" stroke-opacity="0"></use></g></g><g><use xlink:href="#b11ZmoTwn" opacity="1" fill="#e74c3c" fill-opacity="1"></use><g><use xlink:href="#b11ZmoTwn" opacity="1" fill-opacity="0" stroke="#000000" stroke-width="1" stroke-opacity="0"></use></g></g><g><use xlink:href="#a1Th03QHFJ" opacity="1" fill="#4d0a32" fill-opacity="1"></use><g><use xlink:href="#a1Th03QHFJ" opacity="1" fill-opacity="0" stroke="#000000" stroke-width="1" stroke-opacity="0"></use></g></g><g><use xlink:href="#dafF7YFhcs" opacity="1" fill="#000000" fill-opacity="0"></use><g><use xlink:href="#dafF7YFhcs" opacity="1" fill-opacity="0" stroke="#000000" stroke-width="1" stroke-opacity="0"></use></g></g><g><use xlink:href="#aTDVfZfp9" opacity="1" fill="#ffffff" fill-opacity="0"></use><g><use xlink:href="#aTDVfZfp9" opacity="1" fill-opacity="0" stroke="#000000" stroke-width="1" stroke-opacity="0"></use></g></g><g><use xlink:href="#f1EvFFChdz" opacity="1" fill="#000000" fill-opacity="0"></use><g><use xlink:href="#f1EvFFChdz" opacity="1" fill-opacity="0" stroke="#000000" stroke-width="1" stroke-opacity="0"></use></g></g><g><use xlink:href="#eBPtfqQwP" opacity="1" fill="#3498db" fill-opacity="1"></use><g><use xlink:href="#eBPtfqQwP" opacity="1" fill-opacity="0" stroke="#000000" stroke-width="1" stroke-opacity="0"></use></g></g><g><use xlink:href="#d59mqlDev" opacity="1" fill="#4d0a32" fill-opacity="1"></use><g><use xlink:href="#d59mqlDev" opacity="1" fill-opacity="0" stroke="#000000" stroke-width="1" stroke-opacity="0"></use></g></g><g><use xlink:href="#i17D8eEqGI" opacity="1" fill="#000000" fill-opacity="0"></use><g><use xlink:href="#i17D8eEqGI" opacity="1" fill-opacity="0" stroke="#000000" stroke-width="1" stroke-opacity="0"></use></g></g></g></g></svg>