<?xml version="1.0" encoding="UTF-8" standalone="no"?>
<!DOCTYPE svg PUBLIC "-//W3C//DTD SVG 1.1//EN" "http://www.w3.org/Graphics/SVG/1.1/DTD/svg11.dtd">
<svg version="1.1" xmlns="http://www.w3.org/2000/svg" xmlns:xlink="http://www.w3.org/1999/xlink" preserveAspectRatio="xMidYMid meet" viewBox="0 0 512 512" width="512" height="512"><defs><path d="M-140.28 511.57L-140.28 0L371.28 0L371.28 511.57L-140.28 511.57Z" id="aLjXAVxAv"></path><path d="M-140.28 511.57L-140.28 0L371.28 0L371.28 511.57L-140.28 511.57Z" id="k5cxmKHV3U"></path><path d="M-140.28 511.57L-140.28 0L371.28 0L371.28 511.57L-140.28 511.57Z" id="e3Fo85rlTv"></path><path d="M-140.28 511.57L-140.28 0L371.28 0L371.28 511.57L-140.28 511.57Z" id="a2UjUFBM6"></path><path d="M514.22 0L514.22 511.57L0 511.57L0 0L514.22 0Z" id="e1V9KV7NS5"></path><path d="M170.88 459.02L378.74 252.29L269.34 252.29L345.92 103L225.59 103L149 309.72L225.59 309.72L170.88 459.02Z" id="h17iTbPUub"></path><path d="M170.88 459.02L378.74 252.29L269.34 252.29L345.92 103L225.59 103L149 309.72L225.59 309.72L170.88 459.02Z" id="c3t5peeQwN"></path><path d="M200.05 430.02L407.9 223.29L298.5 223.29L375.09 74L254.75 74L178.17 280.72L254.75 280.72L200.05 430.02Z" id="e7yIGDzAu"></path><path d="M200.05 430.02L407.9 223.29L298.5 223.29L375.09 74L254.75 74L178.17 280.72L254.75 280.72L200.05 430.02Z" id="c1GpxVsdX"></path><path d="M-59.65 44.37L-59.65 44.37L-61.28 44.37L-59.65 44.37Z" id="bpxrwqxNN"></path><path d="M-59.65 44.37L-59.65 44.37L-61.28 44.37L-59.65 44.37Z" id="b2Rmj0VPTw"></path><path d="M-59.65 44.37L-59.65 44.37L-61.28 44.37L-59.65 44.37Z" id="d1ddc9c495"></path><path d="M-59.65 44.37L-59.65 44.37L-61.28 44.37L-59.65 44.37Z" id="b7JNS7dvE"></path><path d="M0 465.82L512 465.82L512 511.57L0 511.57L0 465.82Z" id="a1ws7CdVG4"></path><path d="M0 0L512 0L512 58.25L0 58.25L0 0Z" id="a2gbLThFx8"></path><path d="M0 0L66.92 0L66.92 511.57L0 511.57L0 0Z" id="fEBzRXJRt"></path><path d="M494.2 0L512 0L512 511.57L494.2 511.57L494.2 0Z" id="b3g3YCoueG"></path></defs><g><g><g><use xlink:href="#aLjXAVxAv" opacity="1" fill="#ffffff" fill-opacity="0"></use><g><use xlink:href="#aLjXAVxAv" opacity="1" fill-opacity="0" stroke="#000000" stroke-width="1" stroke-opacity="0"></use></g></g><g><use xlink:href="#k5cxmKHV3U" opacity="1" fill="#000000" fill-opacity="0"></use><g><use xlink:href="#k5cxmKHV3U" opacity="1" fill-opacity="0" stroke="#000000" stroke-width="1" stroke-opacity="0"></use></g></g><g><use xlink:href="#e3Fo85rlTv" opacity="1" fill="#000000" fill-opacity="0"></use><g><use xlink:href="#e3Fo85rlTv" opacity="1" fill-opacity="0" stroke="#000000" stroke-width="1" stroke-opacity="0"></use></g></g><g><use xlink:href="#a2UjUFBM6" opacity="1" fill="#000000" fill-opacity="0"></use><g><use xlink:href="#a2UjUFBM6" opacity="1" fill-opacity="0" stroke="#000000" stroke-width="1" stroke-opacity="0"></use></g></g><g><use xlink:href="#e1V9KV7NS5" opacity="1" fill="#ffffff" fill-opacity="1"></use><g><use xlink:href="#e1V9KV7NS5" opacity="1" fill-opacity="0" stroke="#000000" stroke-width="1" stroke-opacity="0"></use></g></g><g><use xlink:href="#h17iTbPUub" opacity="1" fill="#2b2d51" fill-opacity="1"></use><g><use xlink:href="#h17iTbPUub" opacity="1" fill-opacity="0" stroke="#000000" stroke-width="1" stroke-opacity="0"></use></g></g><g><use xlink:href="#c3t5peeQwN" opacity="1" fill="#000000" fill-opacity="0"></use><g><use xlink:href="#c3t5peeQwN" opacity="1" fill-opacity="0" stroke="#000000" stroke-width="1" stroke-opacity="0"></use></g></g><g><use xlink:href="#e7yIGDzAu" opacity="1" fill="#000000" fill-opacity="0"></use><g><use xlink:href="#e7yIGDzAu" opacity="1" fill-opacity="0" stroke="#000000" stroke-width="1" stroke-opacity="0"></use></g></g><g><use xlink:href="#c1GpxVsdX" opacity="1" fill="#000000" fill-opacity="0"></use><g><use xlink:href="#c1GpxVsdX" opacity="1" fill-opacity="0" stroke="#000000" stroke-width="1" stroke-opacity="0"></use></g></g><g><use xlink:href="#bpxrwqxNN" opacity="1" fill="#4d0a32" fill-opacity="1"></use><g><use xlink:href="#bpxrwqxNN" opacity="1" fill-opacity="0" stroke="#000000" stroke-width="1" stroke-opacity="0"></use></g></g><g><use xlink:href="#b2Rmj0VPTw" opacity="1" fill="#000000" fill-opacity="0"></use><g><use xlink:href="#b2Rmj0VPTw" opacity="1" fill-opacity="0" stroke="#000000" stroke-width="1" stroke-opacity="0"></use></g></g><g><use xlink:href="#d1ddc9c495" opacity="1" fill="#000000" fill-opacity="0"></use><g><use xlink:href="#d1ddc9c495" opacity="1" fill-opacity="0" stroke="#000000" stroke-width="1" stroke-opacity="0"></use></g></g><g><use xlink:href="#b7JNS7dvE" opacity="1" fill="#000000" fill-opacity="0"></use><g><use xlink:href="#b7JNS7dvE" opacity="1" fill-opacity="0" stroke="#000000" stroke-width="1" stroke-opacity="0"></use></g></g><g><use xlink:href="#a1ws7CdVG4" opacity="1" fill="#ffffff" fill-opacity="1"></use></g><g><use xlink:href="#a2gbLThFx8" opacity="1" fill="#ffffff" fill-opacity="1"></use></g><g><use xlink:href="#fEBzRXJRt" opacity="1" fill="#ffffff" fill-opacity="1"></use></g><g><use xlink:href="#b3g3YCoueG" opacity="1" fill="#ffffff" fill-opacity="1"></use></g></g></g></svg>
