<?xml version="1.0" encoding="UTF-8" standalone="no"?>
<!DOCTYPE svg PUBLIC "-//W3C//DTD SVG 1.1//EN" "http://www.w3.org/Graphics/SVG/1.1/DTD/svg11.dtd">
<svg version="1.1" xmlns="http://www.w3.org/2000/svg" xmlns:xlink="http://www.w3.org/1999/xlink" preserveAspectRatio="xMidYMid meet" viewBox="0 0 269.2 38.2" width="269.2" height="38.2"><defs><path d="M206.73 0.19L208.04 0.42L209.31 0.74L210.55 1.15L211.75 1.63L212.92 2.19L214.03 2.83L215.1 3.54L216.11 4.31L217.07 5.15L217.97 6.05L218.81 7.01L219.59 8.03L220.3 9.09L220.93 10.21L221.49 11.37L221.98 12.57L222.38 13.81L222.7 15.09L222.93 16.4L223.08 17.73L223.12 19.1L223.08 20.46L222.93 21.8L222.7 23.11L222.38 24.39L221.98 25.63L221.49 26.83L220.93 27.99L220.3 29.11L219.59 30.17L218.81 31.19L217.97 32.15L217.07 33.05L216.11 33.89L215.1 34.67L214.03 35.37L212.92 36.01L211.75 36.57L210.55 37.06L209.31 37.46L208.04 37.78L206.73 38.01L205.39 38.15L204.03 38.2L202.66 38.15L201.32 38.01L200.02 37.78L198.74 37.46L197.5 37.06L196.3 36.57L195.14 36.01L194.02 35.37L192.96 34.67L191.94 33.89L190.98 33.05L190.08 32.15L189.24 31.19L188.46 30.17L187.76 29.11L187.12 27.99L186.56 26.83L186.07 25.63L185.67 24.39L185.35 23.11L185.12 21.8L184.98 20.46L184.93 19.1L184.98 17.73L185.12 16.4L185.35 15.09L185.67 13.81L186.07 12.57L186.56 11.37L187.12 10.21L187.76 9.09L188.46 8.03L189.24 7.01L190.08 6.05L190.98 5.15L191.94 4.31L192.96 3.54L194.02 2.83L195.14 2.19L196.3 1.63L197.5 1.15L198.74 0.74L200.02 0.42L201.32 0.19L202.66 0.05L204.03 0L205.39 0.05L206.73 0.19Z" id="j28EA5hoq4"></path><path d="M206.98 9.57L208.25 10.06L209.43 10.71L210.49 11.51L211.43 12.45L212.24 13.52L212.89 14.69L213.37 15.96L213.67 17.31L213.78 18.72L213.67 20.13L213.37 21.48L212.89 22.75L212.24 23.92L211.43 24.99L210.49 25.93L209.43 26.74L208.25 27.39L206.98 27.87L205.64 28.17L204.22 28.27L202.81 28.17L201.46 27.87L200.2 27.39L199.02 26.74L197.96 25.93L197.02 24.99L196.21 23.92L195.56 22.75L195.08 21.48L194.78 20.13L194.67 18.72L194.78 17.31L195.08 15.96L195.56 14.69L196.21 13.52L197.02 12.45L197.96 11.51L199.02 10.71L200.2 10.06L201.46 9.57L202.81 9.27L204.22 9.17L205.64 9.27L206.98 9.57Z" id="a1aET6GsDy"></path><path d="M114.45 0.19L115.76 0.42L117.04 0.74L118.28 1.15L119.48 1.63L120.64 2.19L121.76 2.83L122.82 3.54L123.84 4.31L124.8 5.15L125.7 6.05L126.54 7.01L127.31 8.03L128.02 9.1L128.66 10.21L129.22 11.37L129.7 12.57L130.11 13.82L130.43 15.09L130.66 16.4L130.8 17.74L130.85 19.1L130.8 20.47L130.66 21.8L130.43 23.11L130.11 24.39L129.7 25.63L129.22 26.83L128.66 27.99L128.02 29.11L127.31 30.17L126.54 31.19L125.7 32.15L124.8 33.05L123.84 33.89L122.82 34.67L121.76 35.37L120.64 36.01L119.48 36.57L118.28 37.06L117.04 37.46L115.76 37.78L114.45 38.01L113.12 38.15L111.75 38.2L110.39 38.15L109.05 38.01L107.74 37.78L106.46 37.46L105.22 37.06L104.02 36.57L102.86 36.01L101.74 35.37L100.68 34.67L99.66 33.89L98.7 33.05L97.8 32.15L96.96 31.19L96.18 30.17L95.48 29.11L94.84 27.99L94.28 26.83L93.79 25.63L93.39 24.39L93.07 23.11L92.84 21.8L92.7 20.47L92.65 19.1L92.7 17.74L92.84 16.4L93.07 15.09L93.39 13.82L93.79 12.57L94.28 11.37L94.84 10.21L95.48 9.1L96.18 8.03L96.96 7.01L97.8 6.05L98.7 5.15L99.66 4.31L100.68 3.54L101.74 2.83L102.86 2.19L104.02 1.63L105.22 1.15L106.46 0.74L107.74 0.42L109.05 0.19L110.39 0.05L111.75 0L113.12 0.05L114.45 0.19Z" id="d3eCBNzNIT"></path><path d="M114.51 9.6L115.78 10.08L116.95 10.73L118.02 11.53L118.96 12.48L119.76 13.54L120.41 14.72L120.89 15.98L121.2 17.33L121.3 18.75L121.2 20.16L120.89 21.5L120.41 22.77L119.76 23.95L118.96 25.01L118.02 25.95L116.95 26.76L115.78 27.41L114.51 27.89L113.16 28.19L111.75 28.29L110.34 28.19L108.99 27.89L107.72 27.41L106.55 26.76L105.48 25.95L104.54 25.01L103.74 23.95L103.09 22.77L102.6 21.5L102.3 20.16L102.2 18.75L102.3 17.33L102.6 15.98L103.09 14.72L103.74 13.54L104.54 12.48L105.48 11.53L106.55 10.73L107.72 10.08L108.99 9.6L110.34 9.29L111.75 9.19L113.16 9.29L114.51 9.6Z" id="adFSkj0OU"></path><path d="M252.79 0.19L254.09 0.42L255.37 0.74L256.61 1.14L257.81 1.63L258.97 2.19L260.09 2.83L261.16 3.53L262.17 4.31L263.13 5.15L264.03 6.05L264.87 7.01L265.65 8.03L266.35 9.09L266.99 10.21L267.55 11.37L268.04 12.57L268.44 13.81L268.76 15.09L268.99 16.4L269.14 17.74L269.18 19.1L269.14 20.47L268.99 21.8L268.76 23.11L268.44 24.39L268.04 25.63L267.55 26.83L266.99 27.99L266.35 29.11L265.65 30.17L264.87 31.19L264.03 32.15L263.13 33.05L262.17 33.89L261.16 34.66L260.09 35.37L258.97 36.01L257.81 36.57L256.61 37.05L255.37 37.46L254.09 37.78L252.79 38.01L251.45 38.15L250.09 38.2L248.72 38.15L247.38 38.01L246.07 37.78L244.8 37.46L243.56 37.05L242.35 36.57L241.19 36.01L240.08 35.37L239.01 34.66L238 33.89L237.04 33.05L236.13 32.15L235.29 31.19L234.52 30.17L233.81 29.11L233.17 27.99L232.61 26.83L232.13 25.63L231.72 24.39L231.4 23.11L231.17 21.8L231.03 20.47L230.98 19.1L231.03 17.74L231.17 16.4L231.4 15.09L231.72 13.81L232.13 12.57L232.61 11.37L233.17 10.21L233.81 9.09L234.52 8.03L235.29 7.01L236.13 6.05L237.04 5.15L238 4.31L239.01 3.53L240.08 2.83L241.19 2.19L242.35 1.63L243.56 1.14L244.8 0.74L246.07 0.42L247.38 0.19L248.72 0.05L250.09 0L251.45 0.05L252.79 0.19Z" id="c1RjI1Fz1X"></path><path d="M252.84 9.95L254.11 10.44L255.28 11.09L256.35 11.89L257.29 12.83L258.09 13.9L258.75 15.07L259.23 16.34L259.53 17.69L259.63 19.1L259.53 20.51L259.23 21.86L258.75 23.13L258.09 24.3L257.29 25.37L256.35 26.31L255.28 27.11L254.11 27.76L252.84 28.25L251.49 28.55L250.08 28.65L248.67 28.55L247.32 28.25L246.05 27.76L244.88 27.11L243.82 26.31L242.87 25.37L242.07 24.3L241.42 23.13L240.94 21.86L240.64 20.51L240.53 19.1L240.64 17.69L240.94 16.34L241.42 15.07L242.07 13.9L242.87 12.83L243.82 11.89L244.88 11.09L246.05 10.44L247.32 9.95L248.67 9.65L250.08 9.55L251.49 9.65L252.84 9.95Z" id="a2prPhoWAl"></path><path d="M68.37 0.2L69.68 0.43L70.96 0.75L72.2 1.16L73.4 1.64L74.56 2.2L75.68 2.84L76.74 3.55L77.76 4.32L78.72 5.16L79.62 6.07L80.46 7.03L81.24 8.04L81.94 9.11L82.58 10.22L83.14 11.38L83.63 12.59L84.03 13.83L84.35 15.1L84.58 16.41L84.73 17.75L84.77 19.11L84.73 20.48L84.58 21.81L84.35 23.12L84.03 24.4L83.63 25.64L83.14 26.84L82.58 28L81.94 29.12L81.24 30.18L80.46 31.2L79.62 32.16L78.72 33.06L77.76 33.9L76.74 34.68L75.68 35.38L74.56 36.02L73.4 36.58L72.2 37.07L70.96 37.47L69.68 37.79L68.37 38.02L67.03 38.16L65.67 38.21L64.31 38.16L62.97 38.02L61.66 37.79L60.38 37.47L59.14 37.07L57.94 36.58L56.78 36.02L55.67 35.38L54.6 34.68L53.58 33.9L52.62 33.06L51.72 32.16L50.88 31.2L50.11 30.18L49.4 29.12L48.76 28L48.2 26.84L47.72 25.64L47.31 24.4L46.99 23.12L46.76 21.81L46.62 20.48L46.57 19.11L46.62 17.75L46.76 16.41L46.99 15.1L47.31 13.83L47.72 12.59L48.2 11.38L48.76 10.22L49.4 9.11L50.11 8.04L50.88 7.03L51.72 6.07L52.62 5.16L53.58 4.32L54.6 3.55L55.67 2.84L56.78 2.2L57.94 1.64L59.14 1.16L60.38 0.75L61.66 0.43L62.97 0.2L64.31 0.06L65.67 0.01L67.03 0.06L68.37 0.2Z" id="e1ZnRubTwJ"></path><path d="M68.43 9.59L69.7 10.08L70.87 10.73L71.94 11.53L72.88 12.47L73.69 13.54L74.34 14.71L74.82 15.98L75.12 17.33L75.22 18.74L75.12 20.15L74.82 21.5L74.34 22.77L73.69 23.94L72.88 25.01L71.94 25.95L70.87 26.75L69.7 27.4L68.43 27.89L67.09 28.19L65.67 28.29L64.26 28.19L62.91 27.89L61.65 27.4L60.47 26.75L59.41 25.95L58.46 25.01L57.66 23.94L57.01 22.77L56.52 21.5L56.22 20.15L56.12 18.74L56.22 17.33L56.52 15.98L57.01 14.71L57.66 13.54L58.46 12.47L59.41 11.53L60.47 10.73L61.65 10.08L62.91 9.59L64.26 9.29L65.67 9.19L67.09 9.29L68.43 9.59Z" id="c1OxCXSo3Q"></path><path d="M160.78 0.19L162.09 0.42L163.36 0.74L164.6 1.15L165.81 1.63L166.97 2.19L168.08 2.83L169.15 3.54L170.16 4.31L171.12 5.15L172.02 6.05L172.87 7.01L173.64 8.03L174.35 9.09L174.99 10.21L175.55 11.37L176.03 12.57L176.44 13.81L176.76 15.09L176.99 16.4L177.13 17.74L177.18 19.1L177.13 20.46L176.99 21.8L176.76 23.11L176.44 24.39L176.03 25.63L175.55 26.83L174.99 27.99L174.35 29.11L173.64 30.17L172.87 31.19L172.02 32.15L171.12 33.05L170.16 33.89L169.15 34.67L168.08 35.37L166.97 36.01L165.81 36.57L164.6 37.06L163.36 37.46L162.09 37.78L160.78 38.01L159.44 38.15L158.07 38.2L156.71 38.15L155.37 38.01L154.06 37.78L152.79 37.46L151.55 37.06L150.34 36.57L149.18 36.01L148.07 35.37L147 34.67L145.99 33.89L145.03 33.05L144.13 32.15L143.29 31.19L142.51 30.17L141.8 29.11L141.17 27.99L140.61 26.83L140.12 25.63L139.72 24.39L139.4 23.11L139.17 21.8L139.02 20.46L138.98 19.1L139.02 17.74L139.17 16.4L139.4 15.09L139.72 13.81L140.12 12.57L140.61 11.37L141.17 10.21L141.8 9.09L142.51 8.03L143.29 7.01L144.13 6.05L145.03 5.15L145.99 4.31L147 3.54L148.07 2.83L149.18 2.19L150.34 1.63L151.55 1.15L152.79 0.74L154.06 0.42L155.37 0.19L156.71 0.05L158.07 0L159.44 0.05L160.78 0.19Z" id="dvNEgYJuG"></path><path d="M160.84 9.57L162.1 10.06L163.28 10.71L164.34 11.51L165.29 12.45L166.09 13.52L166.74 14.69L167.22 15.96L167.52 17.31L167.63 18.72L167.52 20.13L167.22 21.48L166.74 22.75L166.09 23.92L165.29 24.99L164.34 25.93L163.28 26.74L162.1 27.39L160.84 27.87L159.49 28.17L158.08 28.27L156.66 28.17L155.32 27.87L154.05 27.39L152.87 26.74L151.81 25.93L150.87 24.99L150.06 23.92L149.41 22.75L148.93 21.48L148.63 20.13L148.53 18.72L148.63 17.31L148.93 15.96L149.41 14.69L150.06 13.52L150.87 12.45L151.81 11.51L152.87 10.71L154.05 10.06L155.32 9.57L156.66 9.27L158.08 9.17L159.49 9.27L160.84 9.57Z" id="g6lsYB162m"></path><path d="M21.53 0.11L22.83 0.29L24.11 0.57L25.35 0.92L26.56 1.36L27.74 1.88L28.87 2.47L29.96 3.14L31.01 3.88L32 4.68L32.93 5.55L33.81 6.48L34.62 7.46L35.37 8.51L36.05 9.6L36.66 10.75L37.19 11.94L37.64 13.18L38.01 14.45L38.29 15.77L38.48 17.12L38.57 18.48L38.57 19.83L38.47 21.15L38.29 22.46L38.01 23.73L37.66 24.98L37.22 26.19L36.7 27.37L36.11 28.5L35.44 29.59L34.7 30.63L33.9 31.62L33.03 32.56L32.1 33.43L31.12 34.25L30.07 35L28.98 35.68L27.83 36.28L26.64 36.81L25.4 37.26L24.13 37.63L22.81 37.91L21.46 38.1L20.1 38.19L18.75 38.19L17.43 38.1L16.12 37.91L14.85 37.64L13.6 37.28L12.39 36.84L11.22 36.32L10.08 35.73L8.99 35.06L7.95 34.33L6.96 33.53L6.02 32.66L5.15 31.73L4.33 30.74L3.58 29.7L2.9 28.6L2.3 27.46L1.77 26.27L1.32 25.03L0.95 23.75L0.67 22.44L0.48 21.09L0.39 19.72L0.39 18.38L0.49 17.05L0.67 15.75L0.94 14.47L1.3 13.23L1.74 12.02L2.26 10.84L2.85 9.71L3.52 8.62L4.25 7.57L5.05 6.58L5.92 5.65L6.85 4.77L7.84 3.96L8.88 3.21L9.98 2.53L11.12 1.92L12.31 1.39L13.55 0.94L14.83 0.57L16.14 0.29L17.49 0.1L18.86 0.01L20.2 0.01L21.53 0.11Z" id="bgO0wD4bH"></path><path d="M21.93 10.09L23.2 10.58L24.37 11.23L25.44 12.03L26.38 12.97L27.19 14.04L27.84 15.21L28.32 16.48L28.62 17.83L28.72 19.24L28.62 20.65L28.32 22L27.84 23.27L27.19 24.44L26.38 25.51L25.44 26.45L24.37 27.25L23.2 27.9L21.93 28.39L20.59 28.69L19.17 28.79L17.76 28.69L16.41 28.39L15.15 27.9L13.97 27.25L12.91 26.45L11.96 25.51L11.16 24.44L10.51 23.27L10.02 22L9.72 20.65L9.62 19.24L9.72 17.83L10.02 16.48L10.51 15.21L11.16 14.04L11.96 12.97L12.91 12.03L13.97 11.23L15.15 10.58L16.41 10.09L17.76 9.79L19.17 9.69L20.59 9.79L21.93 10.09Z" id="e59aPSBlv1"></path></defs><g><g><g><use xlink:href="#j28EA5hoq4" opacity="1" fill="#e74c3c" fill-opacity="1"></use><g><use xlink:href="#j28EA5hoq4" opacity="1" fill-opacity="0" stroke="#000000" stroke-width="1" stroke-opacity="0"></use></g></g><g><use xlink:href="#a1aET6GsDy" opacity="1" fill="#ffffff" fill-opacity="1"></use><g><use xlink:href="#a1aET6GsDy" opacity="1" fill-opacity="0" stroke="#000000" stroke-width="1" stroke-opacity="0"></use></g></g><g><use xlink:href="#d3eCBNzNIT" opacity="1" fill="#2ecc71" fill-opacity="1"></use><g><use xlink:href="#d3eCBNzNIT" opacity="1" fill-opacity="0" stroke="#000000" stroke-width="1" stroke-opacity="0"></use></g></g><g><use xlink:href="#adFSkj0OU" opacity="1" fill="#ffffff" fill-opacity="1"></use><g><use xlink:href="#adFSkj0OU" opacity="1" fill-opacity="0" stroke="#000000" stroke-width="1" stroke-opacity="0"></use></g></g><g><use xlink:href="#c1RjI1Fz1X" opacity="1" fill="#3498db" fill-opacity="1"></use><g><use xlink:href="#c1RjI1Fz1X" opacity="1" fill-opacity="0" stroke="#000000" stroke-width="1" stroke-opacity="0"></use></g></g><g><use xlink:href="#a2prPhoWAl" opacity="1" fill="#ffffff" fill-opacity="1"></use><g><use xlink:href="#a2prPhoWAl" opacity="1" fill-opacity="0" stroke="#000000" stroke-width="1" stroke-opacity="0"></use></g></g><g><use xlink:href="#e1ZnRubTwJ" opacity="1" fill="#2874a6" fill-opacity="1"></use><g><use xlink:href="#e1ZnRubTwJ" opacity="1" fill-opacity="0" stroke="#000000" stroke-width="1" stroke-opacity="0"></use></g></g><g><use xlink:href="#c1OxCXSo3Q" opacity="1" fill="#ffffff" fill-opacity="1"></use><g><use xlink:href="#c1OxCXSo3Q" opacity="1" fill-opacity="0" stroke="#000000" stroke-width="1" stroke-opacity="0"></use></g></g><g><use xlink:href="#dvNEgYJuG" opacity="1" fill="#e67e22" fill-opacity="1"></use><g><use xlink:href="#dvNEgYJuG" opacity="1" fill-opacity="0" stroke="#000000" stroke-width="1" stroke-opacity="0"></use></g></g><g><use xlink:href="#g6lsYB162m" opacity="1" fill="#ffffff" fill-opacity="1"></use><g><use xlink:href="#g6lsYB162m" opacity="1" fill-opacity="0" stroke="#000000" stroke-width="1" stroke-opacity="0"></use></g></g><g><use xlink:href="#bgO0wD4bH" opacity="1" fill="#17a589" fill-opacity="1"></use><g><use xlink:href="#bgO0wD4bH" opacity="1" fill-opacity="0" stroke="#17a589" stroke-width="1" stroke-opacity="0"></use></g></g><g><use xlink:href="#e59aPSBlv1" opacity="1" fill="#ffffff" fill-opacity="1"></use><g><use xlink:href="#e59aPSBlv1" opacity="1" fill-opacity="0" stroke="#000000" stroke-width="1" stroke-opacity="0"></use></g></g></g></g></svg>
