<?xml version="1.0" encoding="UTF-8" standalone="no"?>
<!DOCTYPE svg PUBLIC "-//W3C//DTD SVG 1.1//EN" "http://www.w3.org/Graphics/SVG/1.1/DTD/svg11.dtd">
<svg version="1.1" xmlns="http://www.w3.org/2000/svg" xmlns:xlink="http://www.w3.org/1999/xlink" preserveAspectRatio="xMidYMid meet" viewBox="0 0 177.18 38.2" width="177.18" height="38.2"><defs><path d="M114.45 0.19L115.76 0.42L117.04 0.74L118.28 1.15L119.48 1.63L120.64 2.19L121.76 2.83L122.82 3.54L123.84 4.31L124.8 5.15L125.7 6.05L126.54 7.01L127.31 8.03L128.02 9.1L128.66 10.21L129.22 11.37L129.7 12.57L130.11 13.82L130.43 15.09L130.66 16.4L130.8 17.74L130.85 19.1L130.8 20.47L130.66 21.8L130.43 23.11L130.11 24.39L129.7 25.63L129.22 26.83L128.66 27.99L128.02 29.11L127.31 30.17L126.54 31.19L125.7 32.15L124.8 33.05L123.84 33.89L122.82 34.67L121.76 35.37L120.64 36.01L119.48 36.57L118.28 37.06L117.04 37.46L115.76 37.78L114.45 38.01L113.12 38.15L111.75 38.2L110.39 38.15L109.05 38.01L107.74 37.78L106.46 37.46L105.22 37.06L104.02 36.57L102.86 36.01L101.74 35.37L100.68 34.67L99.66 33.89L98.7 33.05L97.8 32.15L96.96 31.19L96.18 30.17L95.48 29.11L94.84 27.99L94.28 26.83L93.79 25.63L93.39 24.39L93.07 23.11L92.84 21.8L92.7 20.47L92.65 19.1L92.7 17.74L92.84 16.4L93.07 15.09L93.39 13.82L93.79 12.57L94.28 11.37L94.84 10.21L95.48 9.1L96.18 8.03L96.96 7.01L97.8 6.05L98.7 5.15L99.66 4.31L100.68 3.54L101.74 2.83L102.86 2.19L104.02 1.63L105.22 1.15L106.46 0.74L107.74 0.42L109.05 0.19L110.39 0.05L111.75 0L113.12 0.05L114.45 0.19Z" id="eng69QcP"></path><path d="M114.51 9.6L115.78 10.08L116.95 10.73L118.02 11.53L118.96 12.48L119.76 13.54L120.41 14.72L120.89 15.98L121.2 17.33L121.3 18.75L121.2 20.16L120.89 21.5L120.41 22.77L119.76 23.95L118.96 25.01L118.02 25.95L116.95 26.76L115.78 27.41L114.51 27.89L113.16 28.19L111.75 28.29L110.34 28.19L108.99 27.89L107.72 27.41L106.55 26.76L105.48 25.95L104.54 25.01L103.74 23.95L103.09 22.77L102.6 21.5L102.3 20.16L102.2 18.75L102.3 17.33L102.6 15.98L103.09 14.72L103.74 13.54L104.54 12.48L105.48 11.53L106.55 10.73L107.72 10.08L108.99 9.6L110.34 9.29L111.75 9.19L113.16 9.29L114.51 9.6Z" id="adFSkj0OU"></path><path d="M68.37 0.2L69.68 0.43L70.96 0.75L72.2 1.16L73.4 1.64L74.56 2.2L75.68 2.84L76.74 3.55L77.76 4.32L78.72 5.16L79.62 6.07L80.46 7.03L81.24 8.04L81.94 9.11L82.58 10.22L83.14 11.38L83.63 12.59L84.03 13.83L84.35 15.1L84.58 16.41L84.73 17.75L84.77 19.11L84.73 20.48L84.58 21.81L84.35 23.12L84.03 24.4L83.63 25.64L83.14 26.84L82.58 28L81.94 29.12L81.24 30.18L80.46 31.2L79.62 32.16L78.72 33.06L77.76 33.9L76.74 34.68L75.68 35.38L74.56 36.02L73.4 36.58L72.2 37.07L70.96 37.47L69.68 37.79L68.37 38.02L67.03 38.16L65.67 38.21L64.31 38.16L62.97 38.02L61.66 37.79L60.38 37.47L59.14 37.07L57.94 36.58L56.78 36.02L55.67 35.38L54.6 34.68L53.58 33.9L52.62 33.06L51.72 32.16L50.88 31.2L50.11 30.18L49.4 29.12L48.76 28L48.2 26.84L47.72 25.64L47.31 24.4L46.99 23.12L46.76 21.81L46.62 20.48L46.57 19.11L46.62 17.75L46.76 16.41L46.99 15.1L47.31 13.83L47.72 12.59L48.2 11.38L48.76 10.22L49.4 9.11L50.11 8.04L50.88 7.03L51.72 6.07L52.62 5.16L53.58 4.32L54.6 3.55L55.67 2.84L56.78 2.2L57.94 1.64L59.14 1.16L60.38 0.75L61.66 0.43L62.97 0.2L64.31 0.06L65.67 0.01L67.03 0.06L68.37 0.2Z" id="b177sXNeLp"></path><path d="M68.43 9.59L69.7 10.08L70.87 10.73L71.94 11.53L72.88 12.47L73.69 13.54L74.34 14.71L74.82 15.98L75.12 17.33L75.22 18.74L75.12 20.15L74.82 21.5L74.34 22.77L73.69 23.94L72.88 25.01L71.94 25.95L70.87 26.75L69.7 27.4L68.43 27.89L67.09 28.19L65.67 28.29L64.26 28.19L62.91 27.89L61.65 27.4L60.47 26.75L59.41 25.95L58.46 25.01L57.66 23.94L57.01 22.77L56.52 21.5L56.22 20.15L56.12 18.74L56.22 17.33L56.52 15.98L57.01 14.71L57.66 13.54L58.46 12.47L59.41 11.53L60.47 10.73L61.65 10.08L62.91 9.59L64.26 9.29L65.67 9.19L67.09 9.29L68.43 9.59Z" id="c1OxCXSo3Q"></path><path d="M160.78 0.19L162.09 0.42L163.36 0.74L164.6 1.15L165.81 1.63L166.97 2.19L168.08 2.83L169.15 3.54L170.16 4.31L171.12 5.15L172.02 6.05L172.87 7.01L173.64 8.03L174.35 9.09L174.99 10.21L175.55 11.37L176.03 12.57L176.44 13.81L176.76 15.09L176.99 16.4L177.13 17.74L177.18 19.1L177.13 20.46L176.99 21.8L176.76 23.11L176.44 24.39L176.03 25.63L175.55 26.83L174.99 27.99L174.35 29.11L173.64 30.17L172.87 31.19L172.02 32.15L171.12 33.05L170.16 33.89L169.15 34.67L168.08 35.37L166.97 36.01L165.81 36.57L164.6 37.06L163.36 37.46L162.09 37.78L160.78 38.01L159.44 38.15L158.07 38.2L156.71 38.15L155.37 38.01L154.06 37.78L152.79 37.46L151.55 37.06L150.34 36.57L149.18 36.01L148.07 35.37L147 34.67L145.99 33.89L145.03 33.05L144.13 32.15L143.29 31.19L142.51 30.17L141.8 29.11L141.17 27.99L140.61 26.83L140.12 25.63L139.72 24.39L139.4 23.11L139.17 21.8L139.02 20.46L138.98 19.1L139.02 17.74L139.17 16.4L139.4 15.09L139.72 13.81L140.12 12.57L140.61 11.37L141.17 10.21L141.8 9.09L142.51 8.03L143.29 7.01L144.13 6.05L145.03 5.15L145.99 4.31L147 3.54L148.07 2.83L149.18 2.19L150.34 1.63L151.55 1.15L152.79 0.74L154.06 0.42L155.37 0.19L156.71 0.05L158.07 0L159.44 0.05L160.78 0.19Z" id="a8PwAkiJI"></path><path d="M160.84 9.57L162.1 10.06L163.28 10.71L164.34 11.51L165.29 12.45L166.09 13.52L166.74 14.69L167.22 15.96L167.52 17.31L167.63 18.72L167.52 20.13L167.22 21.48L166.74 22.75L166.09 23.92L165.29 24.99L164.34 25.93L163.28 26.74L162.1 27.39L160.84 27.87L159.49 28.17L158.08 28.27L156.66 28.17L155.32 27.87L154.05 27.39L152.87 26.74L151.81 25.93L150.87 24.99L150.06 23.92L149.41 22.75L148.93 21.48L148.63 20.13L148.53 18.72L148.63 17.31L148.93 15.96L149.41 14.69L150.06 13.52L150.87 12.45L151.81 11.51L152.87 10.71L154.05 10.06L155.32 9.57L156.66 9.27L158.08 9.17L159.49 9.27L160.84 9.57Z" id="g6lsYB162m"></path><path d="M21.14 0.1L22.44 0.28L23.72 0.56L24.96 0.91L26.18 1.35L27.35 1.87L28.49 2.46L29.58 3.13L30.62 3.87L31.61 4.67L32.54 5.54L33.42 6.47L34.24 7.45L34.99 8.5L35.67 9.59L36.27 10.74L36.8 11.93L37.25 13.17L37.62 14.44L37.9 15.76L38.09 17.11L38.18 18.47L38.18 19.82L38.09 21.14L37.9 22.45L37.63 23.72L37.27 24.97L36.83 26.18L36.31 27.36L35.72 28.49L35.05 29.58L34.32 30.62L33.51 31.61L32.65 32.55L31.72 33.42L30.73 34.24L29.69 34.99L28.59 35.67L27.44 36.27L26.25 36.8L25.02 37.25L23.74 37.62L22.42 37.9L21.07 38.09L19.71 38.18L18.36 38.18L17.04 38.09L15.74 37.9L14.46 37.63L13.21 37.27L12 36.83L10.83 36.31L9.69 35.72L8.6 35.06L7.56 34.32L6.57 33.52L5.64 32.65L4.76 31.72L3.95 30.73L3.2 29.69L2.52 28.59L1.91 27.45L1.38 26.26L0.93 25.02L0.56 23.74L0.28 22.43L0.09 21.08L0 19.71L0 18.37L0.1 17.04L0.28 15.74L0.56 14.46L0.91 13.22L1.35 12.01L1.87 10.83L2.46 9.7L3.13 8.61L3.86 7.56L4.67 6.57L5.53 5.64L6.46 4.76L7.45 3.95L8.49 3.2L9.59 2.52L10.73 1.91L11.93 1.38L13.16 0.93L14.44 0.56L15.76 0.28L17.11 0.09L18.47 0L19.81 0L21.14 0.1Z" id="b4wQKTWBCO"></path><path d="M21.93 10.09L23.2 10.58L24.37 11.23L25.44 12.03L26.38 12.97L27.19 14.04L27.84 15.21L28.32 16.48L28.62 17.83L28.72 19.24L28.62 20.65L28.32 22L27.84 23.27L27.19 24.44L26.38 25.51L25.44 26.45L24.37 27.25L23.2 27.9L21.93 28.39L20.59 28.69L19.17 28.79L17.76 28.69L16.41 28.39L15.15 27.9L13.97 27.25L12.91 26.45L11.96 25.51L11.16 24.44L10.51 23.27L10.02 22L9.72 20.65L9.62 19.24L9.72 17.83L10.02 16.48L10.51 15.21L11.16 14.04L11.96 12.97L12.91 12.03L13.97 11.23L15.15 10.58L16.41 10.09L17.76 9.79L19.17 9.69L20.59 9.79L21.93 10.09Z" id="e59aPSBlv1"></path></defs><g><g><g><use xlink:href="#eng69QcP" opacity="1" fill="#9b59b6" fill-opacity="1"></use><g><use xlink:href="#eng69QcP" opacity="1" fill-opacity="0" stroke="#000000" stroke-width="1" stroke-opacity="0"></use></g></g><g><use xlink:href="#adFSkj0OU" opacity="1" fill="#ffffff" fill-opacity="1"></use><g><use xlink:href="#adFSkj0OU" opacity="1" fill-opacity="0" stroke="#000000" stroke-width="1" stroke-opacity="0"></use></g></g><g><use xlink:href="#b177sXNeLp" opacity="1" fill="#546e7a" fill-opacity="1"></use><g><use xlink:href="#b177sXNeLp" opacity="1" fill-opacity="0" stroke="#000000" stroke-width="1" stroke-opacity="0"></use></g></g><g><use xlink:href="#c1OxCXSo3Q" opacity="1" fill="#ffffff" fill-opacity="1"></use><g><use xlink:href="#c1OxCXSo3Q" opacity="1" fill-opacity="0" stroke="#000000" stroke-width="1" stroke-opacity="0"></use></g></g><g><use xlink:href="#a8PwAkiJI" opacity="1" fill="#c91a55" fill-opacity="1"></use><g><use xlink:href="#a8PwAkiJI" opacity="1" fill-opacity="0" stroke="#000000" stroke-width="1" stroke-opacity="0"></use></g></g><g><use xlink:href="#g6lsYB162m" opacity="1" fill="#ffffff" fill-opacity="1"></use><g><use xlink:href="#g6lsYB162m" opacity="1" fill-opacity="0" stroke="#000000" stroke-width="1" stroke-opacity="0"></use></g></g><g><use xlink:href="#b4wQKTWBCO" opacity="1" fill="#546e7a" fill-opacity="1"></use><g><use xlink:href="#b4wQKTWBCO" opacity="1" fill-opacity="0" stroke="#546e7a" stroke-width="1" stroke-opacity="0.12"></use></g></g><g><use xlink:href="#e59aPSBlv1" opacity="1" fill="#ffffff" fill-opacity="1"></use><g><use xlink:href="#e59aPSBlv1" opacity="1" fill-opacity="0" stroke="#000000" stroke-width="1" stroke-opacity="0"></use></g></g></g></g></svg>
